<svg width="129" height="50" viewBox="0 0 129 50" fill="none" xmlns="http://www.w3.org/2000/svg">
<g clip-path="url(#clip0_2_14)">
<path fill-rule="evenodd" clip-rule="evenodd" d="M10.0957 15.4487C9.84638 15.4487 9.78406 15.3205 9.90869 15.1282L11.2174 13.3974C11.342 13.2051 11.6536 13.0769 11.9029 13.0769H34.1507C34.4 13.0769 34.4623 13.2692 34.3377 13.4616L33.2783 15.1282C33.1536 15.3205 32.842 15.5128 32.6551 15.5128L10.0957 15.4487Z" fill="white"/>
<path fill-rule="evenodd" clip-rule="evenodd" d="M0.685494 21.3462C0.436218 21.3462 0.373899 21.218 0.498537 21.0256L1.80723 19.2949C1.93187 19.1026 2.24346 18.9744 2.49274 18.9744H30.9101C31.1594 18.9744 31.284 19.1667 31.2217 19.359L30.7232 20.8974C30.6609 21.1539 30.4116 21.2821 30.1623 21.2821L0.685494 21.3462Z" fill="white"/>
<path fill-rule="evenodd" clip-rule="evenodd" d="M15.7667 27.2436C15.5174 27.2436 15.4551 27.0513 15.5797 26.859L16.4522 25.2564C16.5768 25.0641 16.8261 24.8718 17.0754 24.8718H29.5391C29.7884 24.8718 29.913 25.0641 29.913 25.3205L29.7884 26.859C29.7884 27.1154 29.5391 27.3077 29.3522 27.3077L15.7667 27.2436Z" fill="white"/>
<path fill-rule="evenodd" clip-rule="evenodd" d="M80.4536 14.2949C76.5275 15.3205 73.8478 16.0898 69.9841 17.1154C69.0493 17.3718 68.987 17.4359 68.1768 16.4744C67.242 15.3846 66.5565 14.6795 65.2478 14.0385C61.3217 12.0513 57.5203 12.6282 53.9681 15C49.7304 17.8205 47.5493 21.9872 47.6116 27.1795C47.6739 32.3077 51.1014 36.5385 56.0246 37.2436C60.2623 37.8205 63.8145 36.2821 66.6188 33.0128C67.1797 32.3077 67.6783 31.5385 68.3014 30.641C66.058 30.641 63.2536 30.641 56.2739 30.641C54.9652 30.641 54.6536 29.8077 55.0899 28.718C55.9 26.7308 57.3957 23.3975 58.2681 21.7308C58.4551 21.3462 58.8913 20.7051 59.8261 20.7051H82.5101C82.3855 22.4359 82.3855 24.1667 82.1362 25.8975C81.4507 30.5128 79.7681 34.7436 77.0261 38.4616C72.5391 44.5513 66.6812 48.3333 59.2652 49.359C53.158 50.1923 47.487 48.9744 42.5014 45.1282C37.8899 41.5385 35.2725 36.7949 34.587 30.8974C33.7768 23.9103 35.771 17.6282 39.8841 12.1154C44.3087 6.15386 50.1667 2.37181 57.3333 1.02565C63.1913 -0.0640897 68.8 0.641039 73.8478 4.16668C77.1507 6.41027 79.5188 9.48719 81.0768 13.2051C81.4507 13.7821 81.2015 14.1026 80.4536 14.2949Z" fill="white"/>
<path d="M101.081 49.7436C95.4101 49.6154 90.2377 47.9487 85.8753 44.1026C82.1985 40.8333 79.8927 36.6667 79.1449 31.7308C78.0232 24.4872 79.955 18.0769 84.1927 12.3718C88.742 6.21795 94.2261 3.01282 101.642 1.66667C107.999 0.512821 113.981 1.15385 119.403 4.9359C124.326 8.39744 127.38 13.0769 128.19 19.2308C129.249 27.8846 126.819 34.9359 121.023 40.9615C116.91 45.2564 111.862 47.9487 106.067 49.1667C104.384 49.4872 102.701 49.5513 101.081 49.7436ZM115.913 23.8462C115.851 23.0128 115.851 22.3718 115.726 21.7308C114.604 15.3846 108.933 11.7949 103.013 13.2051C97.2174 14.5513 93.4782 18.3333 92.1072 24.359C90.9855 29.359 93.3536 34.4231 97.8406 36.4744C101.268 38.0128 104.696 37.8205 107.999 36.0897C112.922 33.4615 115.601 29.359 115.913 23.8462Z" fill="white"/>
</g>
<defs>
<clipPath id="clip0_2_14">
<rect width="129" height="50" fill="white"/>
</clipPath>
</defs>
</svg>