<svg width="528" height="388" viewBox="0 0 528 388" fill="none" xmlns="http://www.w3.org/2000/svg">
<rect width="528" height="380" rx="28" fill="#313131"/>
<path d="M142.256 29.1C142.664 29.1 143.052 29.188 143.42 29.364C143.796 29.54 144.104 29.88 144.344 30.384C144.584 30.888 144.704 31.624 144.704 32.592V42H142.832V32.916C142.832 32.124 142.784 31.552 142.688 31.2C142.592 30.848 142.316 30.672 141.86 30.672C141.484 30.672 141.108 30.792 140.732 31.032C140.364 31.264 140.004 31.648 139.652 32.184V42H137.768V32.916C137.768 32.124 137.72 31.552 137.624 31.2C137.528 30.848 137.252 30.672 136.796 30.672C136.404 30.672 136.024 30.792 135.656 31.032C135.296 31.264 134.94 31.648 134.588 32.184V42H132.728V29.364H134.312L134.432 30.828C134.776 30.34 135.16 29.932 135.584 29.604C136.016 29.268 136.548 29.1 137.18 29.1C137.66 29.1 138.112 29.216 138.536 29.448C138.96 29.672 139.272 30.112 139.472 30.768C139.816 30.272 140.204 29.872 140.636 29.568C141.068 29.256 141.608 29.1 142.256 29.1ZM157.366 39.24C157.366 39.744 157.45 40.112 157.618 40.344C157.786 40.576 158.046 40.748 158.398 40.86L157.906 42.276C157.362 42.204 156.886 42.032 156.478 41.76C156.07 41.48 155.774 41.06 155.59 40.5C155.134 41.084 154.566 41.528 153.886 41.832C153.206 42.128 152.454 42.276 151.63 42.276C150.366 42.276 149.37 41.92 148.642 41.208C147.914 40.496 147.55 39.552 147.55 38.376C147.55 37.072 148.058 36.072 149.074 35.376C150.09 34.68 151.558 34.332 153.478 34.332H155.338V33.276C155.338 32.364 155.07 31.72 154.534 31.344C154.006 30.96 153.27 30.768 152.326 30.768C151.91 30.768 151.422 30.82 150.862 30.924C150.302 31.02 149.694 31.184 149.038 31.416L148.51 29.892C149.286 29.604 150.014 29.4 150.694 29.28C151.374 29.16 152.022 29.1 152.638 29.1C154.214 29.1 155.394 29.468 156.178 30.204C156.97 30.932 157.366 31.924 157.366 33.18V39.24ZM152.146 40.74C152.77 40.74 153.366 40.584 153.934 40.272C154.502 39.952 154.97 39.512 155.338 38.952V35.7H153.514C152.122 35.7 151.138 35.94 150.562 36.42C149.994 36.9 149.71 37.544 149.71 38.352C149.71 39.136 149.91 39.732 150.31 40.14C150.718 40.54 151.33 40.74 152.146 40.74ZM169.105 29.364V40.404H172.669V42H163.189V40.404H167.089V30.96H163.309V29.364H169.105ZM167.497 23.448C167.945 23.448 168.301 23.584 168.565 23.856C168.837 24.128 168.973 24.46 168.973 24.852C168.973 25.26 168.837 25.604 168.565 25.884C168.301 26.156 167.945 26.292 167.497 26.292C167.073 26.292 166.725 26.156 166.453 25.884C166.181 25.604 166.045 25.26 166.045 24.852C166.045 24.46 166.181 24.128 166.453 23.856C166.725 23.584 167.073 23.448 167.497 23.448ZM177.1 42V29.364H178.816L178.972 31.116C179.484 30.468 180.124 29.972 180.892 29.628C181.668 29.276 182.42 29.1 183.148 29.1C184.388 29.1 185.288 29.428 185.848 30.084C186.416 30.74 186.7 31.652 186.7 32.82V42H184.684V34.308C184.684 33.444 184.636 32.748 184.54 32.22C184.444 31.684 184.244 31.296 183.94 31.056C183.636 30.808 183.164 30.684 182.524 30.684C182.028 30.684 181.56 30.792 181.12 31.008C180.688 31.224 180.3 31.496 179.956 31.824C179.62 32.144 179.34 32.468 179.116 32.796V42H177.1ZM151.006 157.6C151.006 158.848 151.114 159.968 151.33 160.96C151.546 161.944 151.866 162.848 152.29 163.672C152.714 164.488 153.246 165.264 153.886 166C154.534 166.744 155.286 167.496 156.142 168.256L155.086 169.36C153.79 168.296 152.678 167.208 151.75 166.096C150.83 164.984 150.122 163.744 149.626 162.376C149.138 161.008 148.894 159.416 148.894 157.6C148.894 155.776 149.138 154.18 149.626 152.812C150.122 151.444 150.83 150.204 151.75 149.092C152.678 147.98 153.79 146.896 155.086 145.84L156.142 146.944C155.278 147.712 154.522 148.468 153.874 149.212C153.234 149.948 152.702 150.724 152.278 151.54C151.854 152.348 151.534 153.248 151.318 154.24C151.11 155.224 151.006 156.344 151.006 157.6ZM169.597 157.6C169.597 156.344 169.489 155.224 169.273 154.24C169.065 153.248 168.749 152.348 168.325 151.54C167.901 150.724 167.365 149.948 166.717 149.212C166.077 148.468 165.325 147.712 164.461 146.944L165.517 145.84C166.821 146.896 167.933 147.98 168.853 149.092C169.773 150.204 170.477 151.444 170.965 152.812C171.461 154.18 171.709 155.776 171.709 157.6C171.709 159.416 171.461 161.008 170.965 162.376C170.477 163.744 169.773 164.984 168.853 166.096C167.933 167.208 166.821 168.296 165.517 169.36L164.461 168.256C165.317 167.496 166.065 166.744 166.705 166C167.353 165.264 167.889 164.488 168.313 163.672C168.737 162.848 169.057 161.944 169.273 160.96C169.489 159.968 169.597 158.848 169.597 157.6ZM185.524 145.948V147.532C184.94 147.532 184.408 147.592 183.928 147.712C183.456 147.824 183.088 148.02 182.824 148.3C182.568 148.58 182.46 148.964 182.5 149.452L183.004 154.372C183.076 155.044 183.036 155.6 182.884 156.04C182.732 156.48 182.476 156.824 182.116 157.072C181.764 157.32 181.312 157.496 180.76 157.6C181.32 157.696 181.78 157.864 182.14 158.104C182.5 158.336 182.752 158.672 182.896 159.112C183.04 159.544 183.076 160.116 183.004 160.828L182.5 165.748C182.46 166.244 182.568 166.632 182.824 166.912C183.08 167.192 183.448 167.388 183.928 167.5C184.408 167.612 184.94 167.668 185.524 167.668V169.252C184.852 169.252 184.208 169.192 183.592 169.072C182.976 168.96 182.432 168.764 181.96 168.484C181.488 168.204 181.132 167.82 180.892 167.332C180.652 166.852 180.572 166.244 180.652 165.508L181.132 160.948C181.196 160.396 181.144 159.932 180.976 159.556C180.816 159.18 180.464 158.896 179.92 158.704C179.384 158.504 178.58 158.404 177.508 158.404V156.796C178.58 156.796 179.384 156.7 179.92 156.508C180.464 156.316 180.816 156.032 180.976 155.656C181.144 155.28 181.196 154.82 181.132 154.276L180.652 149.692C180.572 148.956 180.652 148.348 180.892 147.868C181.132 147.38 181.484 146.996 181.948 146.716C182.42 146.436 182.964 146.24 183.58 146.128C184.204 146.008 184.852 145.948 185.524 145.948ZM98.2198 179.024C98.8998 179.024 99.5158 179.084 100.068 179.204C100.62 179.324 101.144 179.492 101.64 179.708L100.992 181.208C100.584 181.032 100.152 180.9 99.6958 180.812C99.2398 180.724 98.7678 180.68 98.2798 180.68C97.3998 180.68 96.7358 180.852 96.2878 181.196C95.8478 181.54 95.6278 182.068 95.6278 182.78V185.348H99.9118L99.6958 186.932H95.6278V197H93.6118V186.932H90.5998V185.348H93.6118V182.828C93.6118 182.044 93.8118 181.368 94.2118 180.8C94.6198 180.232 95.1718 179.796 95.8678 179.492C96.5638 179.18 97.3478 179.024 98.2198 179.024ZM113.474 184.1C113.882 184.1 114.27 184.188 114.638 184.364C115.014 184.54 115.322 184.88 115.562 185.384C115.802 185.888 115.922 186.624 115.922 187.592V197H114.05V187.916C114.05 187.124 114.002 186.552 113.906 186.2C113.81 185.848 113.534 185.672 113.078 185.672C112.702 185.672 112.326 185.792 111.95 186.032C111.582 186.264 111.222 186.648 110.87 187.184V197H108.986V187.916C108.986 187.124 108.938 186.552 108.842 186.2C108.746 185.848 108.47 185.672 108.014 185.672C107.622 185.672 107.242 185.792 106.874 186.032C106.514 186.264 106.158 186.648 105.806 187.184V197H103.946V184.364H105.53L105.65 185.828C105.994 185.34 106.378 184.932 106.802 184.604C107.234 184.268 107.766 184.1 108.398 184.1C108.878 184.1 109.33 184.216 109.754 184.448C110.178 184.672 110.49 185.112 110.69 185.768C111.034 185.272 111.422 184.872 111.854 184.568C112.286 184.256 112.826 184.1 113.474 184.1ZM129.569 196.364C129.137 196.652 128.613 196.876 127.997 197.036C127.381 197.196 126.777 197.276 126.185 197.276C124.825 197.276 123.777 196.92 123.041 196.208C122.305 195.496 121.937 194.58 121.937 193.46V185.924H119.033V184.364H121.937V181.496L123.953 181.256V184.364H128.321L128.081 185.924H123.953V193.436C123.953 194.14 124.137 194.676 124.505 195.044C124.881 195.412 125.501 195.596 126.365 195.596C126.837 195.596 127.273 195.54 127.673 195.428C128.073 195.316 128.445 195.172 128.789 194.996L129.569 196.364ZM136.592 195.152C136.592 194.76 136.684 194.408 136.868 194.096C137.052 193.776 137.3 193.524 137.612 193.34C137.932 193.148 138.292 193.052 138.692 193.052C139.1 193.052 139.464 193.148 139.784 193.34C140.104 193.524 140.356 193.776 140.54 194.096C140.724 194.408 140.816 194.76 140.816 195.152C140.816 195.544 140.724 195.904 140.54 196.232C140.356 196.552 140.104 196.808 139.784 197C139.464 197.184 139.1 197.276 138.692 197.276C138.292 197.276 137.932 197.184 137.612 197C137.3 196.808 137.052 196.552 136.868 196.232C136.684 195.904 136.592 195.544 136.592 195.152ZM237.35 188.6C237.35 189.848 237.458 190.968 237.674 191.96C237.89 192.944 238.21 193.848 238.634 194.672C239.058 195.488 239.59 196.264 240.23 197C240.878 197.744 241.63 198.496 242.486 199.256L241.43 200.36C240.134 199.296 239.022 198.208 238.094 197.096C237.174 195.984 236.466 194.744 235.97 193.376C235.482 192.008 235.238 190.416 235.238 188.6C235.238 186.776 235.482 185.18 235.97 183.812C236.466 182.444 237.174 181.204 238.094 180.092C239.022 178.98 240.134 177.896 241.43 176.84L242.486 177.944C241.622 178.712 240.866 179.468 240.218 180.212C239.578 180.948 239.046 181.724 238.622 182.54C238.198 183.348 237.878 184.248 237.662 185.24C237.454 186.224 237.35 187.344 237.35 188.6ZM514.972 188.6C514.972 187.344 514.864 186.224 514.648 185.24C514.44 184.248 514.124 183.348 513.7 182.54C513.276 181.724 512.74 180.948 512.092 180.212C511.452 179.468 510.7 178.712 509.836 177.944L510.892 176.84C512.196 177.896 513.308 178.98 514.228 180.092C515.148 181.204 515.852 182.444 516.34 183.812C516.836 185.18 517.084 186.776 517.084 188.6C517.084 190.416 516.836 192.008 516.34 193.376C515.852 194.744 515.148 195.984 514.228 197.096C513.308 198.208 512.196 199.296 510.892 200.36L509.836 199.256C510.692 198.496 511.44 197.744 512.08 197C512.728 196.264 513.264 195.488 513.688 194.672C514.112 193.848 514.432 192.944 514.648 191.96C514.864 190.968 514.972 189.848 514.972 188.6ZM19.9546 207.948C20.6266 207.948 21.2706 208.008 21.8866 208.128C22.5026 208.24 23.0466 208.436 23.5186 208.716C23.9906 208.996 24.3466 209.38 24.5866 209.868C24.8346 210.348 24.9146 210.956 24.8266 211.692L24.3466 216.276C24.2826 216.82 24.3506 217.28 24.5506 217.656C24.7586 218.032 25.1346 218.316 25.6786 218.508C26.2226 218.7 26.9866 218.796 27.9706 218.796V220.404C26.9946 220.404 26.2306 220.504 25.6786 220.704C25.1346 220.896 24.7586 221.18 24.5506 221.556C24.3506 221.932 24.2826 222.396 24.3466 222.948L24.8266 227.508C24.9066 228.244 24.8266 228.852 24.5866 229.332C24.3466 229.82 23.9906 230.204 23.5186 230.484C23.0546 230.764 22.5106 230.96 21.8866 231.072C21.2706 231.192 20.6266 231.252 19.9546 231.252V229.668C20.5386 229.668 21.0666 229.612 21.5386 229.5C22.0186 229.388 22.3906 229.192 22.6546 228.912C22.9186 228.632 23.0266 228.244 22.9786 227.748L22.4746 222.828C22.4026 222.116 22.4426 221.544 22.5946 221.112C22.7466 220.672 23.0186 220.336 23.4106 220.104C23.8106 219.872 24.3346 219.712 24.9826 219.624C24.3586 219.52 23.8466 219.34 23.4466 219.084C23.0546 218.828 22.7786 218.48 22.6186 218.04C22.4586 217.6 22.4106 217.044 22.4746 216.372L22.9786 211.452C23.0266 210.964 22.9186 210.58 22.6546 210.3C22.3906 210.02 22.0226 209.824 21.5506 209.712C21.0786 209.592 20.5466 209.532 19.9546 209.532V207.948Z" fill="white"/>
<path d="M27.5266 30.576C27.5266 29.72 27.3586 29.044 27.0226 28.548C26.6866 28.044 26.2266 27.684 25.6426 27.468C25.0586 27.244 24.3906 27.132 23.6386 27.132H21.2506V34.188H23.5546C24.3306 34.188 25.0146 34.084 25.6066 33.876C26.1986 33.66 26.6666 33.292 27.0106 32.772C27.3546 32.244 27.5266 31.512 27.5266 30.576ZM29.7586 30.552C29.7586 31.84 29.4826 32.872 28.9306 33.648C28.3866 34.424 27.6346 34.988 26.6746 35.34C25.7146 35.692 24.6106 35.868 23.3626 35.868H21.2506V42H19.1626V25.476H23.3866C25.3546 25.476 26.9066 25.892 28.0426 26.724C29.1866 27.548 29.7586 28.824 29.7586 30.552ZM42.2413 39.24C42.2413 39.744 42.3253 40.112 42.4933 40.344C42.6613 40.576 42.9213 40.748 43.2733 40.86L42.7812 42.276C42.2373 42.204 41.7613 42.032 41.3533 41.76C40.9453 41.48 40.6493 41.06 40.4653 40.5C40.0093 41.084 39.4413 41.528 38.7613 41.832C38.0813 42.128 37.3293 42.276 36.5053 42.276C35.2413 42.276 34.2453 41.92 33.5173 41.208C32.7893 40.496 32.4253 39.552 32.4253 38.376C32.4253 37.072 32.9333 36.072 33.9492 35.376C34.9653 34.68 36.4333 34.332 38.3533 34.332H40.2133V33.276C40.2133 32.364 39.9453 31.72 39.4093 31.344C38.8813 30.96 38.1453 30.768 37.2013 30.768C36.7853 30.768 36.2973 30.82 35.7373 30.924C35.1773 31.02 34.5693 31.184 33.9133 31.416L33.3853 29.892C34.1613 29.604 34.8893 29.4 35.5693 29.28C36.2493 29.16 36.8973 29.1 37.5133 29.1C39.0893 29.1 40.2693 29.468 41.0533 30.204C41.8453 30.932 42.2413 31.924 42.2413 33.18V39.24ZM37.0213 40.74C37.6453 40.74 38.2413 40.584 38.8093 40.272C39.3773 39.952 39.8453 39.512 40.2133 38.952V35.7H38.3893C36.9973 35.7 36.0133 35.94 35.4373 36.42C34.8693 36.9 34.5853 37.544 34.5853 38.352C34.5853 39.136 34.7853 39.732 35.1853 40.14C35.5933 40.54 36.2053 40.74 37.0213 40.74ZM53.2959 40.536C53.9279 40.536 54.5159 40.432 55.0599 40.224C55.6119 40.016 56.1199 39.752 56.5839 39.432L57.5679 40.752C57.0159 41.224 56.3519 41.596 55.5759 41.868C54.7999 42.14 54.0399 42.276 53.2959 42.276C52.0399 42.276 50.9679 42.008 50.0799 41.472C49.1999 40.928 48.5279 40.168 48.0639 39.192C47.5999 38.208 47.3679 37.056 47.3679 35.736C47.3679 34.472 47.5999 33.34 48.0639 32.34C48.5359 31.332 49.2119 30.54 50.0919 29.964C50.9799 29.388 52.0559 29.1 53.3199 29.1C54.1279 29.1 54.8839 29.224 55.5879 29.472C56.2999 29.712 56.9519 30.076 57.5439 30.564L56.5599 31.908C56.0239 31.532 55.4839 31.252 54.9399 31.068C54.4039 30.876 53.8559 30.78 53.2959 30.78C52.2079 30.78 51.3119 31.188 50.6079 32.004C49.9039 32.82 49.5519 34.064 49.5519 35.736C49.5519 36.856 49.7119 37.772 50.0319 38.484C50.3599 39.188 50.8039 39.708 51.3639 40.044C51.9319 40.372 52.5759 40.536 53.2959 40.536ZM72.5585 29.364L66.8705 35.052L73.2185 42H70.5665L64.3505 35.1L69.9425 29.364H72.5585ZM64.1225 24.024V42H62.1065V24.276L64.1225 24.024ZM85.4131 39.24C85.4131 39.744 85.4971 40.112 85.6651 40.344C85.8331 40.576 86.0931 40.748 86.4451 40.86L85.9531 42.276C85.4091 42.204 84.9331 42.032 84.5251 41.76C84.1171 41.48 83.8211 41.06 83.6371 40.5C83.1811 41.084 82.6131 41.528 81.9331 41.832C81.2531 42.128 80.5011 42.276 79.6771 42.276C78.4131 42.276 77.4171 41.92 76.6891 41.208C75.9611 40.496 75.5971 39.552 75.5971 38.376C75.5971 37.072 76.1051 36.072 77.1211 35.376C78.1371 34.68 79.6051 34.332 81.5251 34.332H83.3851V33.276C83.3851 32.364 83.1171 31.72 82.5811 31.344C82.0531 30.96 81.3171 30.768 80.3731 30.768C79.9571 30.768 79.4691 30.82 78.9091 30.924C78.3491 31.02 77.7411 31.184 77.0851 31.416L76.5571 29.892C77.3331 29.604 78.0611 29.4 78.7411 29.28C79.4211 29.16 80.0691 29.1 80.6851 29.1C82.2611 29.1 83.4411 29.468 84.2251 30.204C85.0171 30.932 85.4131 31.924 85.4131 33.18V39.24ZM80.1931 40.74C80.8171 40.74 81.4131 40.584 81.9811 40.272C82.5491 39.952 83.0171 39.512 83.3851 38.952V35.7H81.5611C80.1691 35.7 79.1851 35.94 78.6091 36.42C78.0411 36.9 77.7571 37.544 77.7571 38.352C77.7571 39.136 77.9571 39.732 78.3571 40.14C78.7651 40.54 79.3771 40.74 80.1931 40.74ZM101.028 28.02L101.652 29.916C101.116 30.084 100.544 30.188 99.9358 30.228C99.3278 30.268 98.6678 30.288 97.9558 30.288C98.6838 30.624 99.2318 31.06 99.5998 31.596C99.9678 32.124 100.152 32.748 100.152 33.468C100.152 34.3 99.9638 35.04 99.5878 35.688C99.2118 36.336 98.6678 36.844 97.9558 37.212C97.2518 37.58 96.3998 37.764 95.3997 37.764C94.9758 37.764 94.6198 37.744 94.3318 37.704C94.0518 37.664 93.7798 37.604 93.5158 37.524C93.3238 37.652 93.1638 37.828 93.0358 38.052C92.9158 38.276 92.8558 38.508 92.8558 38.748C92.8558 39.052 92.9758 39.304 93.2158 39.504C93.4558 39.704 93.8998 39.804 94.5478 39.804H96.8278C97.6758 39.804 98.4358 39.956 99.1078 40.26C99.7878 40.564 100.32 40.972 100.704 41.484C101.096 41.996 101.292 42.58 101.292 43.236C101.292 44.476 100.764 45.428 99.7078 46.092C98.6598 46.756 97.1758 47.088 95.2558 47.088C93.9118 47.088 92.8518 46.948 92.0758 46.668C91.2998 46.396 90.7438 45.976 90.4078 45.408C90.0798 44.848 89.9158 44.14 89.9158 43.284H91.7398C91.7398 43.772 91.8358 44.176 92.0278 44.496C92.2198 44.816 92.5678 45.052 93.0718 45.204C93.5758 45.364 94.2998 45.444 95.2438 45.444C96.1718 45.444 96.9278 45.364 97.5118 45.204C98.1038 45.052 98.5398 44.82 98.8198 44.508C99.1078 44.204 99.2518 43.824 99.2518 43.368C99.2518 42.768 98.9798 42.316 98.4358 42.012C97.8918 41.708 97.2118 41.556 96.3958 41.556H94.1398C93.0518 41.556 92.2478 41.316 91.7278 40.836C91.2158 40.356 90.9598 39.804 90.9598 39.18C90.9598 38.772 91.0758 38.376 91.3078 37.992C91.5478 37.608 91.8958 37.268 92.3518 36.972C91.6238 36.588 91.0878 36.112 90.7438 35.544C90.3998 34.976 90.2278 34.288 90.2278 33.48C90.2278 32.624 90.4398 31.868 90.8638 31.212C91.2878 30.548 91.8798 30.028 92.6398 29.652C93.3998 29.276 94.2758 29.088 95.2678 29.088C96.3318 29.08 97.1958 29.036 97.8598 28.956C98.5238 28.868 99.0918 28.744 99.5638 28.584C100.044 28.424 100.532 28.236 101.028 28.02ZM95.2678 30.564C94.2518 30.564 93.4998 30.84 93.0118 31.392C92.5318 31.936 92.2918 32.632 92.2918 33.48C92.2918 34.336 92.5398 35.04 93.0358 35.592C93.5318 36.144 94.2918 36.42 95.3158 36.42C96.2118 36.42 96.8918 36.16 97.3558 35.64C97.8278 35.12 98.0638 34.396 98.0638 33.468C98.0638 32.516 97.8278 31.796 97.3558 31.308C96.8918 30.812 96.1958 30.564 95.2678 30.564ZM106.73 36.396C106.77 37.372 106.958 38.172 107.294 38.796C107.63 39.412 108.074 39.868 108.626 40.164C109.178 40.452 109.778 40.596 110.426 40.596C111.074 40.596 111.658 40.5 112.178 40.308C112.706 40.116 113.246 39.832 113.798 39.456L114.746 40.788C114.154 41.252 113.478 41.616 112.718 41.88C111.966 42.144 111.194 42.276 110.402 42.276C109.178 42.276 108.134 42 107.27 41.448C106.406 40.896 105.746 40.128 105.29 39.144C104.842 38.152 104.618 37.004 104.618 35.7C104.618 34.42 104.846 33.284 105.302 32.292C105.758 31.3 106.398 30.52 107.222 29.952C108.046 29.384 109.018 29.1 110.138 29.1C111.202 29.1 112.118 29.352 112.886 29.856C113.654 30.352 114.242 31.064 114.65 31.992C115.066 32.912 115.274 34.012 115.274 35.292C115.274 35.508 115.27 35.712 115.262 35.904C115.254 36.088 115.242 36.252 115.226 36.396H106.73ZM110.162 30.756C109.226 30.756 108.442 31.088 107.81 31.752C107.186 32.416 106.83 33.444 106.742 34.836H113.33C113.306 33.484 113.01 32.468 112.442 31.788C111.874 31.1 111.114 30.756 110.162 30.756ZM25.1986 91.364V102.404H28.7626V104H19.2826V102.404H23.1826V92.96H19.4026V91.364H25.1986ZM23.5906 85.448C24.0386 85.448 24.3946 85.584 24.6586 85.856C24.9306 86.128 25.0666 86.46 25.0666 86.852C25.0666 87.26 24.9306 87.604 24.6586 87.884C24.3946 88.156 24.0386 88.292 23.5906 88.292C23.1666 88.292 22.8186 88.156 22.5466 87.884C22.2746 87.604 22.1386 87.26 22.1386 86.852C22.1386 86.46 22.2746 86.128 22.5466 85.856C22.8186 85.584 23.1666 85.448 23.5906 85.448ZM41.5213 91.1C41.9293 91.1 42.3173 91.188 42.6853 91.364C43.0613 91.54 43.3693 91.88 43.6093 92.384C43.8493 92.888 43.9693 93.624 43.9693 94.592V104H42.0973V94.916C42.0973 94.124 42.0493 93.552 41.9533 93.2C41.8573 92.848 41.5813 92.672 41.1253 92.672C40.7493 92.672 40.3733 92.792 39.9973 93.032C39.6293 93.264 39.2693 93.648 38.9173 94.184V104H37.0333V94.916C37.0333 94.124 36.9853 93.552 36.8893 93.2C36.7933 92.848 36.5173 92.672 36.0613 92.672C35.6693 92.672 35.2893 92.792 34.9213 93.032C34.5613 93.264 34.2053 93.648 33.8533 94.184V104H31.9933V91.364H33.5773L33.6973 92.828C34.0413 92.34 34.4253 91.932 34.8493 91.604C35.2813 91.268 35.8133 91.1 36.4453 91.1C36.9253 91.1 37.3773 91.216 37.8013 91.448C38.2253 91.672 38.5373 92.112 38.7373 92.768C39.0813 92.272 39.4693 91.872 39.9013 91.568C40.3333 91.256 40.8733 91.1 41.5213 91.1ZM53.2359 91.1C54.3559 91.1 55.2479 91.372 55.9119 91.916C56.5839 92.46 57.0679 93.228 57.3639 94.22C57.6599 95.204 57.8079 96.356 57.8079 97.676C57.8079 98.948 57.6279 100.084 57.2679 101.084C56.9159 102.076 56.3799 102.856 55.6599 103.424C54.9399 103.992 54.0319 104.276 52.9359 104.276C51.5519 104.276 50.4399 103.788 49.5999 102.812V108.836L47.5839 109.088V91.364H49.2999L49.4679 93.128C49.9319 92.48 50.4839 91.98 51.1239 91.628C51.7719 91.276 52.4759 91.1 53.2359 91.1ZM52.7559 92.72C52.0599 92.72 51.4439 92.932 50.9079 93.356C50.3799 93.772 49.9439 94.236 49.5999 94.748V101.012C49.9279 101.5 50.3399 101.888 50.8359 102.176C51.3399 102.456 51.8919 102.596 52.4919 102.596C53.5399 102.596 54.3279 102.196 54.8559 101.396C55.3839 100.596 55.6479 99.352 55.6479 97.664C55.6479 96.56 55.5439 95.644 55.3359 94.916C55.1279 94.18 54.8119 93.632 54.3879 93.272C53.9639 92.904 53.4199 92.72 52.7559 92.72ZM66.7865 91.1C67.9785 91.1 68.9745 91.372 69.7745 91.916C70.5825 92.452 71.1865 93.212 71.5865 94.196C71.9945 95.18 72.1985 96.34 72.1985 97.676C72.1985 98.964 71.9905 100.104 71.5745 101.096C71.1585 102.088 70.5465 102.868 69.7385 103.436C68.9385 103.996 67.9465 104.276 66.7625 104.276C65.5785 104.276 64.5825 104.004 63.7745 103.46C62.9665 102.916 62.3545 102.152 61.9385 101.168C61.5305 100.176 61.3265 99.02 61.3265 97.7C61.3265 96.396 61.5345 95.248 61.9505 94.256C62.3665 93.264 62.9785 92.492 63.7865 91.94C64.6025 91.38 65.6025 91.1 66.7865 91.1ZM66.7865 92.744C65.6985 92.744 64.8745 93.148 64.3145 93.956C63.7625 94.756 63.4865 96.004 63.4865 97.7C63.4865 99.364 63.7585 100.6 64.3025 101.408C64.8545 102.216 65.6745 102.62 66.7625 102.62C67.8505 102.62 68.6665 102.216 69.2105 101.408C69.7625 100.6 70.0385 99.356 70.0385 97.676C70.0385 95.996 69.7665 94.756 69.2225 93.956C68.6785 93.148 67.8665 92.744 66.7865 92.744ZM76.4851 104V102.452H78.4531V92.912H76.4851V91.364H79.9891L80.3611 94.352C80.8491 93.312 81.4411 92.508 82.1371 91.94C82.8331 91.372 83.7531 91.088 84.8971 91.088C85.2491 91.088 85.5611 91.116 85.8331 91.172C86.1131 91.22 86.3971 91.284 86.6851 91.364L86.0971 93.164C85.8331 93.092 85.5931 93.04 85.3771 93.008C85.1611 92.968 84.9131 92.948 84.6331 92.948C83.6651 92.948 82.8331 93.292 82.1371 93.98C81.4411 94.668 80.8851 95.708 80.4691 97.1V102.452H83.0371V104H76.4851ZM84.7411 95.636V92.888L84.9451 91.364H86.6851L86.3971 95.636H84.7411ZM100.788 103.364C100.356 103.652 99.8318 103.876 99.2158 104.036C98.5998 104.196 97.9958 104.276 97.4038 104.276C96.0438 104.276 94.9958 103.92 94.2598 103.208C93.5238 102.496 93.1558 101.58 93.1558 100.46V92.924H90.2518V91.364H93.1558V88.496L95.1718 88.256V91.364H99.5398L99.2998 92.924H95.1718V100.436C95.1718 101.14 95.3558 101.676 95.7238 102.044C96.0998 102.412 96.7198 102.596 97.5838 102.596C98.0558 102.596 98.4918 102.54 98.8918 102.428C99.2918 102.316 99.6638 102.172 100.008 101.996L100.788 103.364ZM26.2666 148.024C26.9466 148.024 27.5626 148.084 28.1146 148.204C28.6666 148.324 29.1906 148.492 29.6866 148.708L29.0386 150.208C28.6306 150.032 28.1986 149.9 27.7426 149.812C27.2866 149.724 26.8146 149.68 26.3266 149.68C25.4466 149.68 24.7826 149.852 24.3346 150.196C23.8946 150.54 23.6746 151.068 23.6746 151.78V154.348H27.9586L27.7426 155.932H23.6746V166H21.6586V155.932H18.6466V154.348H21.6586V151.828C21.6586 151.044 21.8586 150.368 22.2586 149.8C22.6666 149.232 23.2186 148.796 23.9146 148.492C24.6106 148.18 25.3946 148.024 26.2666 148.024ZM35.2093 153.364V162.316C35.2093 163.148 35.3813 163.748 35.7253 164.116C36.0693 164.484 36.6053 164.668 37.3333 164.668C38.0293 164.668 38.6853 164.472 39.3013 164.08C39.9253 163.68 40.4093 163.208 40.7533 162.664V153.364H42.7693V166H41.0533L40.8853 164.296C40.3893 164.936 39.7773 165.428 39.0493 165.772C38.3213 166.108 37.5853 166.276 36.8412 166.276C35.6173 166.276 34.7013 165.952 34.0933 165.304C33.4933 164.648 33.1933 163.732 33.1933 162.556V153.364H35.2093ZM47.5839 166V153.364H49.2999L49.4559 155.116C49.9679 154.468 50.6079 153.972 51.3759 153.628C52.1519 153.276 52.9039 153.1 53.6319 153.1C54.8719 153.1 55.7719 153.428 56.3319 154.084C56.8999 154.74 57.1839 155.652 57.1839 156.82V166H55.1679V158.308C55.1679 157.444 55.1199 156.748 55.0239 156.22C54.9279 155.684 54.7279 155.296 54.4239 155.056C54.1199 154.808 53.6479 154.684 53.0079 154.684C52.5119 154.684 52.0439 154.792 51.6039 155.008C51.1719 155.224 50.7839 155.496 50.4399 155.824C50.1039 156.144 49.8239 156.468 49.5999 156.796V166H47.5839ZM67.6865 164.536C68.3185 164.536 68.9065 164.432 69.4505 164.224C70.0025 164.016 70.5105 163.752 70.9745 163.432L71.9585 164.752C71.4065 165.224 70.7425 165.596 69.9665 165.868C69.1905 166.14 68.4305 166.276 67.6865 166.276C66.4305 166.276 65.3585 166.008 64.4705 165.472C63.5905 164.928 62.9185 164.168 62.4545 163.192C61.9905 162.208 61.7585 161.056 61.7585 159.736C61.7585 158.472 61.9905 157.34 62.4545 156.34C62.9265 155.332 63.6025 154.54 64.4825 153.964C65.3705 153.388 66.4465 153.1 67.7105 153.1C68.5185 153.1 69.2745 153.224 69.9785 153.472C70.6905 153.712 71.3425 154.076 71.9345 154.564L70.9505 155.908C70.4145 155.532 69.8745 155.252 69.3305 155.068C68.7945 154.876 68.2465 154.78 67.6865 154.78C66.5985 154.78 65.7025 155.188 64.9985 156.004C64.2945 156.82 63.9425 158.064 63.9425 159.736C63.9425 160.856 64.1025 161.772 64.4225 162.484C64.7505 163.188 65.1945 163.708 65.7545 164.044C66.3225 164.372 66.9665 164.536 67.6865 164.536Z" fill="#297FFF"/>
<path d="M123.377 90.788C123.377 91.284 123.197 91.7 122.837 92.036C122.485 92.372 122.057 92.54 121.553 92.54C121.041 92.54 120.613 92.372 120.269 92.036C119.925 91.7 119.753 91.284 119.753 90.788C119.753 90.588 119.777 90.372 119.825 90.14C119.873 89.9 119.989 89.588 120.173 89.204L122.117 85.064H123.713L122.729 89.468C122.929 89.604 123.085 89.792 123.197 90.032C123.317 90.264 123.377 90.516 123.377 90.788ZM128.561 90.788C128.561 91.284 128.377 91.7 128.009 92.036C127.649 92.372 127.225 92.54 126.737 92.54C126.241 92.54 125.817 92.372 125.465 92.036C125.113 91.7 124.937 91.284 124.937 90.788C124.937 90.588 124.961 90.372 125.009 90.14C125.057 89.9 125.173 89.588 125.357 89.204L127.337 85.064H128.897L127.925 89.468C128.117 89.604 128.269 89.792 128.381 90.032C128.501 90.264 128.561 90.516 128.561 90.788ZM141.392 86.024C142.072 86.024 142.688 86.084 143.24 86.204C143.792 86.324 144.316 86.492 144.812 86.708L144.164 88.208C143.756 88.032 143.324 87.9 142.868 87.812C142.412 87.724 141.94 87.68 141.452 87.68C140.572 87.68 139.908 87.852 139.46 88.196C139.02 88.54 138.8 89.068 138.8 89.78V92.348H143.084L142.868 93.932H138.8V104H136.784V93.932H133.772V92.348H136.784V89.828C136.784 89.044 136.984 88.368 137.384 87.8C137.792 87.232 138.344 86.796 139.04 86.492C139.736 86.18 140.52 86.024 141.392 86.024ZM156.646 91.1C157.054 91.1 157.442 91.188 157.81 91.364C158.186 91.54 158.494 91.88 158.734 92.384C158.974 92.888 159.094 93.624 159.094 94.592V104H157.222V94.916C157.222 94.124 157.174 93.552 157.078 93.2C156.982 92.848 156.706 92.672 156.25 92.672C155.874 92.672 155.498 92.792 155.122 93.032C154.754 93.264 154.394 93.648 154.042 94.184V104H152.158V94.916C152.158 94.124 152.11 93.552 152.014 93.2C151.918 92.848 151.642 92.672 151.186 92.672C150.794 92.672 150.414 92.792 150.046 93.032C149.686 93.264 149.33 93.648 148.978 94.184V104H147.118V91.364H148.702L148.822 92.828C149.166 92.34 149.55 91.932 149.974 91.604C150.406 91.268 150.938 91.1 151.57 91.1C152.05 91.1 152.502 91.216 152.926 91.448C153.35 91.672 153.662 92.112 153.862 92.768C154.206 92.272 154.594 91.872 155.026 91.568C155.458 91.256 155.998 91.1 156.646 91.1ZM172.741 103.364C172.309 103.652 171.785 103.876 171.169 104.036C170.553 104.196 169.949 104.276 169.357 104.276C167.997 104.276 166.949 103.92 166.213 103.208C165.477 102.496 165.109 101.58 165.109 100.46V92.924H162.205V91.364H165.109V88.496L167.125 88.256V91.364H171.493L171.253 92.924H167.125V100.436C167.125 101.14 167.309 101.676 167.677 102.044C168.053 102.412 168.673 102.596 169.537 102.596C170.009 102.596 170.445 102.54 170.845 102.428C171.245 102.316 171.617 102.172 171.961 101.996L172.741 103.364ZM177.628 86.852C177.628 86.356 177.808 85.94 178.168 85.604C178.536 85.26 178.964 85.088 179.452 85.088C179.948 85.088 180.376 85.26 180.736 85.604C181.096 85.94 181.276 86.356 181.276 86.852C181.276 87.068 181.244 87.288 181.18 87.512C181.116 87.728 180.988 88.032 180.796 88.424L178.852 92.564H177.292L178.24 88.16C178.056 88.016 177.908 87.828 177.796 87.596C177.684 87.364 177.628 87.116 177.628 86.852ZM182.812 86.852C182.812 86.356 182.992 85.94 183.352 85.604C183.72 85.26 184.148 85.088 184.636 85.088C185.14 85.088 185.568 85.26 185.92 85.604C186.28 85.94 186.46 86.356 186.46 86.852C186.46 87.068 186.432 87.288 186.376 87.512C186.32 87.728 186.2 88.032 186.016 88.424L184.048 92.564H182.476L183.448 88.16C183.256 88.016 183.1 87.828 182.98 87.596C182.868 87.364 182.812 87.116 182.812 86.852ZM252.893 183.788C252.893 184.284 252.713 184.7 252.353 185.036C252.001 185.372 251.573 185.54 251.069 185.54C250.557 185.54 250.129 185.372 249.785 185.036C249.441 184.7 249.269 184.284 249.269 183.788C249.269 183.588 249.293 183.372 249.341 183.14C249.389 182.9 249.505 182.588 249.689 182.204L251.633 178.064H253.229L252.245 182.468C252.445 182.604 252.601 182.792 252.713 183.032C252.833 183.264 252.893 183.516 252.893 183.788ZM258.077 183.788C258.077 184.284 257.893 184.7 257.525 185.036C257.165 185.372 256.741 185.54 256.253 185.54C255.757 185.54 255.333 185.372 254.981 185.036C254.629 184.7 254.453 184.284 254.453 183.788C254.453 183.588 254.477 183.372 254.525 183.14C254.573 182.9 254.689 182.588 254.873 182.204L256.853 178.064H258.413L257.441 182.468C257.633 182.604 257.785 182.792 257.897 183.032C258.017 183.264 258.077 183.516 258.077 183.788ZM271.351 197V189.164H265.111V197H263.035V180.476H265.111V187.46H271.351V180.476H273.427V197H271.351ZM279.418 191.396C279.458 192.372 279.646 193.172 279.982 193.796C280.318 194.412 280.762 194.868 281.314 195.164C281.866 195.452 282.466 195.596 283.114 195.596C283.762 195.596 284.346 195.5 284.866 195.308C285.394 195.116 285.934 194.832 286.486 194.456L287.434 195.788C286.842 196.252 286.166 196.616 285.406 196.88C284.654 197.144 283.882 197.276 283.09 197.276C281.866 197.276 280.822 197 279.958 196.448C279.094 195.896 278.434 195.128 277.978 194.144C277.53 193.152 277.306 192.004 277.306 190.7C277.306 189.42 277.534 188.284 277.99 187.292C278.446 186.3 279.086 185.52 279.91 184.952C280.734 184.384 281.706 184.1 282.826 184.1C283.89 184.1 284.806 184.352 285.574 184.856C286.342 185.352 286.93 186.064 287.338 186.992C287.754 187.912 287.962 189.012 287.962 190.292C287.962 190.508 287.958 190.712 287.95 190.904C287.942 191.088 287.93 191.252 287.914 191.396H279.418ZM282.85 185.756C281.914 185.756 281.13 186.088 280.498 186.752C279.874 187.416 279.518 188.444 279.43 189.836H286.018C285.994 188.484 285.698 187.468 285.13 186.788C284.562 186.1 283.802 185.756 282.85 185.756ZM297.145 179.276V193.88C297.145 194.504 297.337 194.948 297.721 195.212C298.113 195.468 298.617 195.596 299.233 195.596C299.617 195.596 299.981 195.556 300.325 195.476C300.669 195.396 301.013 195.288 301.357 195.152L301.897 196.628C301.553 196.796 301.125 196.944 300.613 197.072C300.109 197.208 299.537 197.276 298.897 197.276C297.777 197.276 296.869 196.968 296.173 196.352C295.477 195.728 295.129 194.868 295.129 193.772V180.872H291.253V179.276H297.145ZM311.535 179.276V193.88C311.535 194.504 311.727 194.948 312.111 195.212C312.503 195.468 313.007 195.596 313.623 195.596C314.007 195.596 314.371 195.556 314.715 195.476C315.059 195.396 315.403 195.288 315.747 195.152L316.287 196.628C315.943 196.796 315.515 196.944 315.003 197.072C314.499 197.208 313.927 197.276 313.287 197.276C312.167 197.276 311.259 196.968 310.563 196.352C309.867 195.728 309.519 194.868 309.519 193.772V180.872H305.643V179.276H311.535ZM325.818 184.1C327.01 184.1 328.006 184.372 328.806 184.916C329.614 185.452 330.218 186.212 330.618 187.196C331.026 188.18 331.23 189.34 331.23 190.676C331.23 191.964 331.022 193.104 330.606 194.096C330.19 195.088 329.578 195.868 328.77 196.436C327.97 196.996 326.978 197.276 325.794 197.276C324.61 197.276 323.614 197.004 322.806 196.46C321.998 195.916 321.386 195.152 320.97 194.168C320.562 193.176 320.358 192.02 320.358 190.7C320.358 189.396 320.566 188.248 320.982 187.256C321.398 186.264 322.01 185.492 322.818 184.94C323.634 184.38 324.634 184.1 325.818 184.1ZM325.818 185.744C324.73 185.744 323.906 186.148 323.346 186.956C322.794 187.756 322.518 189.004 322.518 190.7C322.518 192.364 322.79 193.6 323.334 194.408C323.886 195.216 324.706 195.62 325.794 195.62C326.882 195.62 327.698 195.216 328.242 194.408C328.794 193.6 329.07 192.356 329.07 190.676C329.07 188.996 328.798 187.756 328.254 186.956C327.71 186.148 326.898 185.744 325.818 185.744ZM340.184 193.052C340.736 193.052 341.196 193.24 341.564 193.616C341.94 193.992 342.128 194.444 342.128 194.972C342.128 195.26 342.092 195.552 342.02 195.848C341.956 196.144 341.836 196.48 341.66 196.856L339.716 201.308H337.892L339.044 196.568C338.804 196.392 338.612 196.164 338.468 195.884C338.332 195.596 338.264 195.292 338.264 194.972C338.264 194.436 338.448 193.984 338.816 193.616C339.184 193.24 339.64 193.052 340.184 193.052ZM376.058 180.476L373.538 197H370.802L368.906 184.532L366.998 197H364.202L361.874 180.476H363.962L365.726 194.708L367.706 182.396H370.262L372.146 194.708L374.126 180.476H376.058ZM383.38 184.1C384.572 184.1 385.568 184.372 386.368 184.916C387.176 185.452 387.78 186.212 388.18 187.196C388.588 188.18 388.792 189.34 388.792 190.676C388.792 191.964 388.584 193.104 388.168 194.096C387.752 195.088 387.14 195.868 386.332 196.436C385.532 196.996 384.54 197.276 383.356 197.276C382.172 197.276 381.176 197.004 380.368 196.46C379.56 195.916 378.948 195.152 378.532 194.168C378.124 193.176 377.92 192.02 377.92 190.7C377.92 189.396 378.128 188.248 378.544 187.256C378.96 186.264 379.572 185.492 380.38 184.94C381.196 184.38 382.196 184.1 383.38 184.1ZM383.38 185.744C382.292 185.744 381.468 186.148 380.908 186.956C380.356 187.756 380.08 189.004 380.08 190.7C380.08 192.364 380.352 193.6 380.896 194.408C381.448 195.216 382.268 195.62 383.356 195.62C384.444 195.62 385.26 195.216 385.804 194.408C386.356 193.6 386.632 192.356 386.632 190.676C386.632 188.996 386.36 187.756 385.816 186.956C385.272 186.148 384.46 185.744 383.38 185.744ZM393.079 197V195.452H395.047V185.912H393.079V184.364H396.583L396.955 187.352C397.443 186.312 398.035 185.508 398.731 184.94C399.427 184.372 400.347 184.088 401.491 184.088C401.843 184.088 402.155 184.116 402.427 184.172C402.707 184.22 402.991 184.284 403.279 184.364L402.691 186.164C402.427 186.092 402.187 186.04 401.971 186.008C401.755 185.968 401.507 185.948 401.227 185.948C400.259 185.948 399.427 186.292 398.731 186.98C398.035 187.668 397.479 188.708 397.063 190.1V195.452H399.631V197H393.079ZM401.335 188.636V185.888L401.539 184.364H403.279L402.991 188.636H401.335ZM412.27 179.276V193.88C412.27 194.504 412.462 194.948 412.846 195.212C413.238 195.468 413.742 195.596 414.358 195.596C414.742 195.596 415.106 195.556 415.45 195.476C415.794 195.396 416.138 195.288 416.482 195.152L417.022 196.628C416.678 196.796 416.25 196.944 415.738 197.072C415.234 197.208 414.662 197.276 414.022 197.276C412.902 197.276 411.994 196.968 411.298 196.352C410.602 195.728 410.254 194.868 410.254 193.772V180.872H406.378V179.276H412.27ZM429.3 179.024L431.316 179.276V197H429.552L429.36 195.332C428.888 196.004 428.344 196.496 427.728 196.808C427.12 197.12 426.468 197.276 425.772 197.276C424.676 197.276 423.772 197 423.06 196.448C422.348 195.896 421.82 195.128 421.476 194.144C421.132 193.152 420.96 192.004 420.96 190.7C420.96 189.436 421.156 188.308 421.548 187.316C421.94 186.316 422.504 185.532 423.24 184.964C423.984 184.388 424.876 184.1 425.916 184.1C426.644 184.1 427.284 184.228 427.836 184.484C428.388 184.732 428.876 185.1 429.3 185.588V179.024ZM426.444 185.72C425.388 185.72 424.576 186.132 424.008 186.956C423.44 187.78 423.156 189.028 423.156 190.7C423.156 191.788 423.272 192.7 423.504 193.436C423.736 194.172 424.076 194.724 424.524 195.092C424.98 195.46 425.536 195.644 426.192 195.644C426.912 195.644 427.524 195.44 428.028 195.032C428.54 194.624 428.964 194.164 429.3 193.652V187.34C428.956 186.828 428.54 186.432 428.052 186.152C427.564 185.864 427.028 185.72 426.444 185.72ZM441.987 180.476L441.783 191.552H439.971L439.731 180.476H441.987ZM440.895 194.06C441.359 194.06 441.743 194.216 442.047 194.528C442.359 194.84 442.515 195.216 442.515 195.656C442.515 196.104 442.359 196.488 442.047 196.808C441.743 197.12 441.359 197.276 440.895 197.276C440.439 197.276 440.059 197.12 439.755 196.808C439.451 196.488 439.299 196.104 439.299 195.656C439.299 195.216 439.451 194.84 439.755 194.528C440.059 194.216 440.439 194.06 440.895 194.06ZM463.76 178.364L465.368 177.572L475.64 198.752L474.008 199.472L463.76 178.364ZM479.303 197V184.364H481.019L481.175 186.116C481.687 185.468 482.327 184.972 483.095 184.628C483.871 184.276 484.623 184.1 485.351 184.1C486.591 184.1 487.491 184.428 488.051 185.084C488.619 185.74 488.903 186.652 488.903 187.82V197H486.887V189.308C486.887 188.444 486.839 187.748 486.743 187.22C486.647 186.684 486.447 186.296 486.143 186.056C485.839 185.808 485.367 185.684 484.727 185.684C484.231 185.684 483.763 185.792 483.323 186.008C482.891 186.224 482.503 186.496 482.159 186.824C481.823 187.144 481.543 187.468 481.319 187.796V197H479.303ZM494.221 179.852C494.221 179.356 494.401 178.94 494.761 178.604C495.129 178.26 495.557 178.088 496.045 178.088C496.541 178.088 496.969 178.26 497.329 178.604C497.689 178.94 497.869 179.356 497.869 179.852C497.869 180.068 497.837 180.288 497.773 180.512C497.709 180.728 497.581 181.032 497.389 181.424L495.445 185.564H493.885L494.833 181.16C494.649 181.016 494.501 180.828 494.389 180.596C494.277 180.364 494.221 180.116 494.221 179.852ZM499.405 179.852C499.405 179.356 499.585 178.94 499.945 178.604C500.313 178.26 500.741 178.088 501.229 178.088C501.733 178.088 502.161 178.26 502.513 178.604C502.873 178.94 503.053 179.356 503.053 179.852C503.053 180.068 503.025 180.288 502.969 180.512C502.913 180.728 502.793 181.032 502.609 181.424L500.641 185.564H499.069L500.041 181.16C499.849 181.016 499.693 180.828 499.573 180.596C499.461 180.364 499.405 180.116 499.405 179.852Z" fill="#FF9900"/>
<path d="M99.0838 153.1C99.4918 153.1 99.8798 153.188 100.248 153.364C100.624 153.54 100.932 153.88 101.172 154.384C101.412 154.888 101.532 155.624 101.532 156.592V166H99.6598V156.916C99.6598 156.124 99.6118 155.552 99.5158 155.2C99.4198 154.848 99.1438 154.672 98.6878 154.672C98.3118 154.672 97.9358 154.792 97.5598 155.032C97.1918 155.264 96.8318 155.648 96.4798 156.184V166H94.5958V156.916C94.5958 156.124 94.5478 155.552 94.4518 155.2C94.3558 154.848 94.0798 154.672 93.6238 154.672C93.2318 154.672 92.8518 154.792 92.4838 155.032C92.1238 155.264 91.7678 155.648 91.4158 156.184V166H89.5558V153.364H91.1398L91.2598 154.828C91.6038 154.34 91.9878 153.932 92.4118 153.604C92.8438 153.268 93.3758 153.1 94.0078 153.1C94.4878 153.1 94.9398 153.216 95.3638 153.448C95.7878 153.672 96.0998 154.112 96.2998 154.768C96.6438 154.272 97.0318 153.872 97.4638 153.568C97.8958 153.256 98.4358 153.1 99.0838 153.1ZM114.194 163.24C114.194 163.744 114.278 164.112 114.446 164.344C114.614 164.576 114.874 164.748 115.226 164.86L114.734 166.276C114.19 166.204 113.714 166.032 113.306 165.76C112.898 165.48 112.602 165.06 112.418 164.5C111.962 165.084 111.394 165.528 110.714 165.832C110.034 166.128 109.282 166.276 108.458 166.276C107.194 166.276 106.198 165.92 105.47 165.208C104.742 164.496 104.378 163.552 104.378 162.376C104.378 161.072 104.886 160.072 105.902 159.376C106.918 158.68 108.386 158.332 110.306 158.332H112.166V157.276C112.166 156.364 111.898 155.72 111.362 155.344C110.834 154.96 110.098 154.768 109.154 154.768C108.738 154.768 108.25 154.82 107.69 154.924C107.13 155.02 106.522 155.184 105.866 155.416L105.338 153.892C106.114 153.604 106.842 153.4 107.522 153.28C108.202 153.16 108.85 153.1 109.466 153.1C111.042 153.1 112.222 153.468 113.006 154.204C113.798 154.932 114.194 155.924 114.194 157.18V163.24ZM108.974 164.74C109.598 164.74 110.194 164.584 110.762 164.272C111.33 163.952 111.798 163.512 112.166 162.952V159.7H110.342C108.95 159.7 107.966 159.94 107.39 160.42C106.822 160.9 106.538 161.544 106.538 162.352C106.538 163.136 106.738 163.732 107.138 164.14C107.546 164.54 108.158 164.74 108.974 164.74ZM125.933 153.364V164.404H129.497V166H120.017V164.404H123.917V154.96H120.137V153.364H125.933ZM124.325 147.448C124.773 147.448 125.129 147.584 125.393 147.856C125.665 148.128 125.801 148.46 125.801 148.852C125.801 149.26 125.665 149.604 125.393 149.884C125.129 150.156 124.773 150.292 124.325 150.292C123.901 150.292 123.553 150.156 123.281 149.884C123.009 149.604 122.873 149.26 122.873 148.852C122.873 148.46 123.009 148.128 123.281 147.856C123.553 147.584 123.901 147.448 124.325 147.448ZM133.928 166V153.364H135.644L135.8 155.116C136.312 154.468 136.952 153.972 137.72 153.628C138.496 153.276 139.248 153.1 139.976 153.1C141.216 153.1 142.116 153.428 142.676 154.084C143.244 154.74 143.528 155.652 143.528 156.82V166H141.512V158.308C141.512 157.444 141.464 156.748 141.368 156.22C141.272 155.684 141.072 155.296 140.768 155.056C140.464 154.808 139.992 154.684 139.352 154.684C138.856 154.684 138.388 154.792 137.948 155.008C137.516 155.224 137.128 155.496 136.784 155.824C136.448 156.144 136.168 156.468 135.944 156.796V166H133.928ZM153.97 184.1C155.09 184.1 155.982 184.372 156.646 184.916C157.318 185.46 157.802 186.228 158.098 187.22C158.394 188.204 158.542 189.356 158.542 190.676C158.542 191.948 158.362 193.084 158.002 194.084C157.65 195.076 157.114 195.856 156.394 196.424C155.674 196.992 154.766 197.276 153.67 197.276C152.286 197.276 151.174 196.788 150.334 195.812V201.836L148.318 202.088V184.364H150.034L150.202 186.128C150.666 185.48 151.218 184.98 151.858 184.628C152.506 184.276 153.21 184.1 153.97 184.1ZM153.49 185.72C152.794 185.72 152.178 185.932 151.642 186.356C151.114 186.772 150.678 187.236 150.334 187.748V194.012C150.662 194.5 151.074 194.888 151.57 195.176C152.074 195.456 152.626 195.596 153.226 195.596C154.274 195.596 155.062 195.196 155.59 194.396C156.118 193.596 156.382 192.352 156.382 190.664C156.382 189.56 156.278 188.644 156.07 187.916C155.862 187.18 155.546 186.632 155.122 186.272C154.698 185.904 154.154 185.72 153.49 185.72ZM162.829 197V195.452H164.797V185.912H162.829V184.364H166.333L166.705 187.352C167.193 186.312 167.785 185.508 168.481 184.94C169.177 184.372 170.097 184.088 171.241 184.088C171.593 184.088 171.905 184.116 172.177 184.172C172.457 184.22 172.741 184.284 173.029 184.364L172.441 186.164C172.177 186.092 171.937 186.04 171.721 186.008C171.505 185.968 171.257 185.948 170.977 185.948C170.009 185.948 169.177 186.292 168.481 186.98C167.785 187.668 167.229 188.708 166.813 190.1V195.452H169.381V197H162.829ZM171.085 188.636V185.888L171.289 184.364H173.029L172.741 188.636H171.085ZM183.496 184.364V195.404H187.06V197H177.58V195.404H181.48V185.96H177.7V184.364H183.496ZM181.888 178.448C182.336 178.448 182.692 178.584 182.956 178.856C183.228 179.128 183.364 179.46 183.364 179.852C183.364 180.26 183.228 180.604 182.956 180.884C182.692 181.156 182.336 181.292 181.888 181.292C181.464 181.292 181.116 181.156 180.844 180.884C180.572 180.604 180.436 180.26 180.436 179.852C180.436 179.46 180.572 179.128 180.844 178.856C181.116 178.584 181.464 178.448 181.888 178.448ZM191.49 197V184.364H193.206L193.362 186.116C193.874 185.468 194.514 184.972 195.282 184.628C196.058 184.276 196.81 184.1 197.538 184.1C198.778 184.1 199.678 184.428 200.238 185.084C200.806 185.74 201.09 186.652 201.09 187.82V197H199.074V189.308C199.074 188.444 199.026 187.748 198.93 187.22C198.834 186.684 198.634 186.296 198.33 186.056C198.026 185.808 197.554 185.684 196.914 185.684C196.418 185.684 195.95 185.792 195.51 186.008C195.078 186.224 194.69 186.496 194.346 186.824C194.01 187.144 193.73 187.468 193.506 187.796V197H191.49ZM215.913 196.364C215.481 196.652 214.957 196.876 214.341 197.036C213.725 197.196 213.121 197.276 212.529 197.276C211.169 197.276 210.121 196.92 209.385 196.208C208.649 195.496 208.281 194.58 208.281 193.46V185.924H205.377V184.364H208.281V181.496L210.297 181.256V184.364H214.665L214.425 185.924H210.297V193.436C210.297 194.14 210.481 194.676 210.849 195.044C211.225 195.412 211.845 195.596 212.709 195.596C213.181 195.596 213.617 195.54 214.017 195.428C214.417 195.316 214.789 195.172 215.133 194.996L215.913 196.364ZM227.735 179.024C228.415 179.024 229.031 179.084 229.583 179.204C230.135 179.324 230.659 179.492 231.155 179.708L230.507 181.208C230.099 181.032 229.667 180.9 229.211 180.812C228.755 180.724 228.283 180.68 227.795 180.68C226.915 180.68 226.251 180.852 225.803 181.196C225.363 181.54 225.143 182.068 225.143 182.78V185.348H229.427L229.211 186.932H225.143V197H223.127V186.932H220.115V185.348H223.127V182.828C223.127 182.044 223.327 181.368 223.727 180.8C224.135 180.232 224.687 179.796 225.383 179.492C226.079 179.18 226.863 179.024 227.735 179.024Z" fill="#FBFF4A"/>
</svg>
